<svg width="205" height="227" viewBox="0 0 205 227" fill="none" xmlns="http://www.w3.org/2000/svg">
<path d="M32.745 20.5533C32.745 20.5533 8.32512 18.2131 0.999169 43.2435C0.999169 43.2435 -12.2282 74.5822 57.5718 105.718L44.9549 83.6379C44.9549 83.6379 7.61288 63.7968 15.4476 45.3802C15.4476 45.3802 20.3315 30.83 35.6957 35.9175L32.745 20.5533Z" fill="#9244CE"/>
<path d="M171.734 20.5533C171.734 20.5533 196.154 18.2131 203.48 43.2435C203.48 43.2435 216.707 74.5822 146.907 105.718L159.524 83.6379C159.524 83.6379 196.866 63.7968 189.031 45.3802C189.031 45.3802 184.147 30.83 168.783 35.9175L171.734 20.5533Z" fill="#9244CE"/>
<path d="M167.054 211.232H37.0186V226.799H167.054V211.232Z" fill="#02EBFF"/>
<path d="M153.114 211.232H51.2629V184.472C51.2629 177.247 57.1644 171.346 64.3886 171.346H139.683C147.111 171.346 153.216 177.349 153.216 184.879V211.232H153.114Z" fill="#02EBFF"/>
<path d="M91.1495 124.846L87.3848 158.831C87.3848 158.831 85.3498 167.174 76.0906 171.346H127.576C127.576 171.346 115.875 166.971 115.773 151.098L113.636 124.948H91.1495V124.846Z" fill="#9244CE"/>
<path d="M32.2359 17.9079C32.2359 17.9079 27.759 1.83149 41.3934 0H160.44C160.44 0 174.685 0.508749 172.548 13.1257L162.068 71.2245C162.068 71.2245 154.64 124.032 102.138 126.169C102.138 126.169 58.7925 126.678 44.3441 81.7047L32.2359 17.9079Z" fill="#FA9CFF"/>
<path d="M93.693 46.3977L102.138 21.2656L110.38 46.3977H136.835L115.874 63.0846L123.506 88.1149L102.138 73.463L80.5674 88.1149L88.3003 63.0846L66.6277 47.0082L93.693 46.3977Z" fill="#DD09EB"/>
</svg>
