<svg width="141" height="141" viewBox="0 0 141 141" fill="none" xmlns="http://www.w3.org/2000/svg">
<path d="M25.4954 13.1747H58.6047V21.7924H66.9768V30.1261H75.5384V21.6346H83.7526V13.1747H117.557V21.6346H125.897V30.1261H134.112V64.1235H125.897L125.961 80.6645H117.462L117.557 89.2191H109.343L109.185 97.4265H100.844L100.907 105.981H92.251L92.0931 114.283H83.9105V122.901H75.6964L75.5384 131.235H66.6609V122.838H58.4783L58.3835 114.283L50.201 114.346L50.1062 105.918H41.6078L41.671 97.4897H34.373L34.4362 89.3139L24.832 89.2191V81.5484L16.4915 81.6115V64.1867L7.96143 64.1235V30.1261L16.4915 30.1892L16.5547 21.6977H25.4954V13.1747Z" fill="#FB9CFF" stroke="white" stroke-width="5" stroke-miterlimit="10"/>
<path d="M27.8018 34.6085H36.5846V25.6436H45.9676V34.9558H37.1532L36.8689 50.0763H27.8018V34.6085Z" fill="white"/>
</svg>
