<svg width="48" height="25" viewBox="0 0 48 25" fill="none" xmlns="http://www.w3.org/2000/svg">
<path d="M46.5 21.4002C46.5 21.9765 46.379 22.3061 46.2506 22.5059C46.1252 22.701 45.9156 22.8929 45.5226 23.0615C44.6509 23.4354 43.2019 23.5645 41.0361 23.4697C39.4475 23.4002 37.639 23.2229 35.6059 23.0236C34.9232 22.9567 34.2152 22.8873 33.4816 22.8187C30.5959 22.5486 27.3841 22.2985 24 22.2985C20.6159 22.2985 17.4041 22.5486 14.5184 22.8187C13.7848 22.8873 13.0768 22.9567 12.3941 23.0236C10.361 23.2229 8.55246 23.4002 6.96386 23.4697C4.79809 23.5645 3.34909 23.4354 2.47737 23.0615C2.08435 22.8929 1.8748 22.701 1.74943 22.5059C1.621 22.3061 1.5 21.9765 1.5 21.4002C1.5 20.1763 2.04522 18.3047 3.21278 16.0913C4.35993 13.9165 6.03485 11.5506 8.11566 9.36569C12.3068 4.96486 17.9408 1.5 24 1.5C30.0592 1.5 35.6932 4.96486 39.8843 9.36569C41.9651 11.5506 43.6401 13.9165 44.7872 16.0913C45.9548 18.3047 46.5 20.1763 46.5 21.4002Z" fill="#06EBFF" stroke="white" stroke-width="3"/>
</svg>
